<svg width="32" height="32" viewBox="0 0 32 32" fill="none" xmlns="http://www.w3.org/2000/svg">
<path d="M15.5061 10.91L16.7595 15.0567H20.5195L17.4928 17.2167L18.7328 21.23L15.5061 18.7767L12.2795 21.23L13.5195 17.2167L10.4928 15.0567H14.2528L15.5061 10.91ZM12.2795 12.39H6.3328C5.03946 12.39 4.50613 14.0567 5.55946 14.8033L10.4128 18.27L8.50613 24.4167C8.11946 25.6567 9.55946 26.6567 10.5861 25.87L15.5061 22.1367L20.4261 25.8833C21.4528 26.67 22.8928 25.67 22.5061 24.43L20.5995 18.2833L25.4528 14.8167C26.5061 14.0567 25.9728 12.4033 24.6795 12.4033H18.7328L16.7728 5.95C16.3861 4.68333 14.5995 4.68333 14.2261 5.95L12.2795 12.39Z" fill="url(#paint0_linear_11_94)"/>
<defs>
<linearGradient id="paint0_linear_11_94" x1="15.5061" y1="5" x2="15.5061" y2="26.1626" gradientUnits="userSpaceOnUse">
<stop offset="0.369792" stop-color="#C726FF"/>
<stop offset="0.90625" stop-color="#26FFF2"/>
</linearGradient>
</defs>
</svg>
